<svg xmlns="http://www.w3.org/2000/svg" version="1.1" xmlns:xlink="http://www.w3.org/1999/xlink" xmlns:svgjs="http://svgjs.com/svgjs" width="1000" height="1000"><rect width="1000" height="1000" rx="200" ry="200" fill="#006c67"></rect><g transform="matrix(1.6877637130801688,0,0,1.6877637130801688,100.00987035010934,117.87895987707856)"><svg xmlns="http://www.w3.org/2000/svg" version="1.1" xmlns:xlink="http://www.w3.org/1999/xlink" xmlns:svgjs="http://svgjs.com/svgjs" width="474" height="453"><svg width="474" height="453" xmlns="http://www.w3.org/2000/svg" xmlns:xlink="http://www.w3.org/1999/xlink">
 <defs>
  <linearGradient y2="0.01806" x2="0.98262" y1="0.96366" x1="0.02451" id="New_Gradient_Swatch_1">
   <stop stop-color="#183c47" offset="0"></stop>
   <stop stop-color="#10282f" offset="0.22"></stop>
   <stop stop-color="#071215" offset="0.52"></stop>
   <stop stop-color="#020506" offset="0.79"></stop>
   <stop offset="1"></stop>
  </linearGradient>
  <linearGradient xlink:href="#New_Gradient_Swatch_1" y2="81.16" x2="276.57" y1="81.16" x1="201.16" id="New_Gradient_Swatch_1-2"></linearGradient>
 </defs>
 <g>
  <title>Layer 1</title>
  <g id="burglar">
   <path id="svg_5" fill="#efbf97" d="m75.37,245.03554l-1.1,-10.49l-0.59,0.68l-13.27,4.75s-4.5,-18.34 -19,-23.41a142.89,142.89 0 0 0 -17.59,-4.9a4.82,4.82 0 0 1 -1.62,3c-2,1.52 -5.55,-0.09 -5.55,-0.09l0.64,-4.11c-2.27,-0.36 -3.55,-0.47 -3.55,-0.47l-0.38,6.94c4.3,-0.31 7.82,-1.35 15.86,0.71a20.66,20.66 0 0 1 11.67,8.57l0,0c-0.73,-0.15 -7.77,-1.44 -22.12,3.26a70.17,70.17 0 0 0 -8.86,3.48a12.19,12.19 0 0 1 0.39,1.86c0.43,3 -4.78,6.41 -4.78,6.41l-2.24,-4.48a14.1,14.1 0 0 0 -3.28,2.91l3.11,5.51a72.7,72.7 0 0 1 22.47,-11.82a31.65,31.65 0 0 1 16.2,-0.7l-0.15,0.06c-1.36,0.49 -12.54,4.73 -20.06,12.77a61.27,61.27 0 0 0 -7.51,10.18l0.64,0.41c4.33,3 1.78,8.2 1.78,8.2l-6.27,-1.57c-1.07,2.18 -1.64,3.58 -1.64,3.58l7.88,3.17c2.51,-6.08 8.27,-19.12 13.39,-24.14c6.36,-6.23 16.23,-8.59 21,-3.94c4.3,4.21 2.91,12.5 2.62,14a1,1 0 0 1 0,0.18c-1.25,10.48 -14.88,19.49 -14.88,19.49l4.24,6.67l0.58,0.9c4,-2.83 10.15,-7.53 12.77,-11.53a25.2,25.2 0 0 0 3,-6.87a38.18,38.18 0 0 0 1.13,-13.38l15.07,-5.79z" class="cls-3"></path>
   <path id="svg_6" fill="#dea076" d="m76.06,251.81554l-0.52,-5.08l-0.17,-1.7l-15.06,5.79a38.18,38.18 0 0 1 -1.13,13.38a25.2,25.2 0 0 1 -3,6.87c-2.62,4 -8.74,8.7 -12.77,11.53l4,6.3a34,34 0 0 0 2.7,-2.23l-3.7,-4.48s3,-2.88 5.8,-1.56a23.71,23.71 0 0 1 2.51,1.32a42.9,42.9 0 0 0 5.34,-7.74a35,35 0 0 0 4.27,-15.46a18.91,18.91 0 0 0 -0.15,-2.91l4.19,-1.42l7.69,-2.61zm-48,-29.14c0.19,0 0.39,0 0.58,0.05a30.88,30.88 0 0 1 12.16,3.48l0,0a20.66,20.66 0 0 0 -11.67,-8.57c-8,-2.06 -11.56,-1 -15.86,-0.71l-0.08,1.4l-0.28,5a82.48,82.48 0 0 1 15.15,-0.65zm-2,15.4a85,85 0 0 1 15.79,-5.43a31.65,31.65 0 0 0 -16.2,0.7a72.7,72.7 0 0 0 -22.6,11.81l0.39,0.7l3.28,5.84a64.11,64.11 0 0 1 15.18,-11.55c1.38,-0.75 2.77,-1.45 4.13,-2.07l0.03,0zm23.2,6.31c4.52,2.32 4.61,7.37 4.24,10.94c0.29,-1.46 1.68,-9.75 -2.62,-14c-4.74,-4.65 -14.61,-2.29 -21,3.94c-5.12,5 -10.88,18.06 -13.39,24.14l3.09,1.28l3.61,1.46s0.46,-1.42 1.28,-3.64c3.62,-9.71 14.83,-29.24 24.76,-24.12l0.03,0z" class="cls-4"></path>
   <path id="svg_7" fill="#e4bc96" d="m52.18,280.63554a23.71,23.71 0 0 1 2.51,1.32a46.7,46.7 0 0 1 -4.61,4.72l-3.7,-4.48s2.96,-2.88 5.8,-1.56z" class="cls-5"></path>
   <path id="svg_8" fill="#f4ceaf" d="m23.78,211.64554a4.82,4.82 0 0 1 -1.62,3c-2,1.52 -5.55,-0.09 -5.55,-0.09l0.64,-4.11c1.67,0.25 3.89,0.64 6.53,1.2z" class="cls-6"></path>
   <path id="svg_9" fill="#f4ceaf" d="m9.82,232.94554a12.19,12.19 0 0 1 0.39,1.86c0.43,3 -4.78,6.41 -4.78,6.41l-2.24,-4.48a40.12,40.12 0 0 1 6.63,-3.79z" class="cls-6"></path>
   <path id="svg_10" fill="#f4ceaf" d="m14.74,256.06554c4.33,3 1.78,8.2 1.78,8.2l-6.27,-1.57c0.93,-1.91 2.23,-4.38 3.85,-7l0.64,0.37z" class="cls-6"></path>
   <path id="svg_11" fill="#fff" d="m144.67,236.39554l2.09,16.53a91.89,91.89 0 0 1 16,4.42l1.2,-11.25a92.51,92.51 0 0 0 -19.29,-9.7zm-52.48,-7.1l5,26.51a125.19,125.19 0 0 1 27.29,-4.37l-4.41,-21.13a131.56,131.56 0 0 0 -27.88,-1.01z" class="cls-7"></path>
   <path id="svg_12" fill="#bfd5e8" d="m146.76,252.92554l1,7.69a125.56,125.56 0 0 1 14.18,4.55l0.83,-7.82a91.89,91.89 0 0 0 -16.01,-4.42zm-49.62,2.88l1.85,9.95a143.86,143.86 0 0 1 27.05,-6.59l-1.61,-7.73a125.19,125.19 0 0 0 -27.29,4.37z" class="cls-8"></path>
   <path id="svg_13" fill="#092565" d="m187.52,270.54554s-6.37,-13 -23.58,-24.43l-1.2,11.25a79.36,79.36 0 0 1 25.59,15.18l-0.81,-2zm-50.09,-36.5a131.62,131.62 0 0 0 -17.41,-3.72l4.41,21.13a99.54,99.54 0 0 1 15.63,0.5c2.31,0.26 4.56,0.6 6.7,1l-2.09,-16.53c-2.31,-0.88 -4.72,-1.66 -7.24,-2.4l0,0.02zm-67.46,-1l1.09,3.93l12.83,-1.57l0.9,2.62l-12.76,2.48l1.94,7l13.8,-3.67l1.13,3.31l-14,3.58l1.46,5.29l13.28,-4s0.77,2.26 1,2.79s-9.54,3.08 -13.44,4.13l1,3.68a126.65,126.65 0 0 1 19,-6.77l-5,-26.51c-13.68,0.89 -22.23,3.68 -22.23,3.68l0,0.03z" class="cls-9"></path>
   <path id="svg_14" d="m188.33,272.54554a79.36,79.36 0 0 0 -25.59,-15.16l-0.83,7.82a221.16,221.16 0 0 1 29.07,13.83l-2.65,-6.49zm-48.27,-20.57a99.54,99.54 0 0 0 -15.63,-0.5l1.61,7.73c1.79,-0.25 3.59,-0.41 5.34,-0.51a56.05,56.05 0 0 1 16.35,2l-1,-7.69c-2.15,-0.46 -4.36,-0.81 -6.67,-1.07l0,0.04zm-61.94,10.57l1,3.73l15,-5l1.13,3.31l-15.17,5.21l0.8,2.88s7.58,-3.48 18.06,-7l-1.85,-9.95a126.65,126.65 0 0 0 -18.97,6.82z"></path>
   <polygon id="svg_15" fill="#092565" points="94.16999824523926,261.3355379104614 95.30000312805176,264.65551471710205 80.13000495910644,269.8555269241333 79.16000373840332,266.30553913116455 94.16999824523926,261.3355379104614 " class="cls-9"></polygon>
   <path id="svg_16" fill="#0a3881" d="m87.77,243.80554l-13.8,3.67l0.88,3.22l14,-3.58l-1.08,-3.31zm1.82,8.17l-13.28,4l0.8,2.91c3.9,-1.05 13.58,-3.71 13.44,-4.13s-0.97,-2.78 -0.97,-2.78l0.01,0zm-5.7,-16.6l-12.83,1.57l1,3.53l12.76,-2.48l-0.93,-2.62z" class="cls-10"></path>
   <path id="svg_17" fill="#dea076" d="m380.9,161.11554l11.51,-2.66s-5.56,-15.23 1.84,-25.63a102.64,102.64 0 0 1 15.56,-17.58l6.76,9.22a64.78,64.78 0 0 0 -10.48,6.56a25.36,25.36 0 0 0 -7,8.49s3.9,-4.48 16.46,-8s17.41,-1.46 17.41,-1.46l1.08,11.78a51.19,51.19 0 0 0 -15.65,-1.17a64.86,64.86 0 0 0 -16.89,3.88s10.19,-2.64 19.62,-0.23s18.5,8.82 18.5,8.82l-7.07,11s-22.29,-18.59 -29.39,-12.43c-6.39,5.52 0.47,16.27 7.93,19.34a32.84,32.84 0 0 0 12.49,2.31l0.56,14.05a38.58,38.58 0 0 1 -15.41,-4.61c-8.45,-4.79 -11.37,-11.24 -11.37,-11.24l-9.92,2.67l-6.54,-13.11z" class="cls-4"></path>
   <path id="svg_18" fill="#bfd5e8" d="m326.99,213.10554l10.12,13.35a95.5,95.5 0 0 1 10.65,-15.91l-11.12,-18a78.21,78.21 0 0 0 -9.65,20.56zm39.9,-50.7a102.86,102.86 0 0 0 -19.18,16.06l13.16,21.76a120.36,120.36 0 0 1 18.38,-8l-12.36,-29.82z" class="cls-8"></path>
   <path id="svg_19" d="m324.7,241.11554l2.14,7.56a187.71,187.71 0 0 1 10.27,-22.22l-10.12,-13.35c-4.84,16.21 -2.29,28.01 -2.29,28.01zm13.27,-50.57c-0.45,0.67 -0.9,1.34 -1.33,2l11.12,18a38.49,38.49 0 0 1 6.73,-6.35a64.07,64.07 0 0 1 6.38,-3.95l-13.16,-21.76a107.59,107.59 0 0 0 -9.74,12.06zm42.61,-35.4a74.89,74.89 0 0 0 -13.69,7.26l12.36,29.83c8.31,-2.9 14.74,-4.37 14.74,-4.37l-13.41,-32.72z"></path>
   <path id="svg_20" d="m466.58,262.04554c-13,-10.44 -30,-3.73 -33,-2.42a39.07,39.07 0 0 0 -1.5,-4.42c-4,-9.62 -12.42,-17 -12.42,-17l-5.63,8s5.85,4.14 8.92,13.92a42.46,42.46 0 0 1 2.15,16.42l10,-2.22a41.28,41.28 0 0 0 -0.19,-7.91c4.24,-0.53 9.35,-0.47 13.91,1.5c10.14,4.37 11.67,10.85 16.86,13s15.25,-7.37 0.9,-18.87z"></path>
   <path id="svg_21" d="m344.89,249.04554s17.53,-23 39.3,-27.65c21.46,-4.61 43.62,7.86 43.62,7.86l-12,29.29s-13.86,-20.56 -31.23,-17.61c-15.41,2.61 -37.72,20.33 -37.72,20.33l-1.97,-12.22z"></path>
   <path id="svg_22" d="m281.58,440.54554c-5.51,-3 -13,-0.78 -24,-6.54c-5.92,-3.1 -9.62,-8.25 -11.78,-12.36l3.69,-5.54l-9.25,-3.21l-23,32.54l12.36,0.45l10.75,-16.08c2.13,6.17 8,17.67 23,21.48c20.86,5.31 23.72,-7.74 18.23,-10.74z"></path>
   <path id="svg_23" d="m248.12,317.47554s29.31,32.12 27.45,55.69c-1.84,23.23 -20.19,47.53 -20.19,47.53l-19.13,-6.91c5.88,-5.34 28.86,-25.42 29.24,-44.69c0.37,-18.81 -18.61,-43.65 -23.77,-51.28l6.4,-0.34z"></path>
   <path id="svg_24" fill="#183c47" d="m241.72,317.81554l-6.79,0.34s24.69,39 23.69,50.63c-1.74,20.18 -30.89,41.92 -30.89,41.92l8.52,3.08c5.88,-5.34 28.86,-25.42 29.24,-44.69c0.37,-18.81 -18.61,-43.65 -23.77,-51.28z" class="cls-11"></path>
   <path id="svg_25" d="m309.31,56.24554c5.29,12.34 5.33,24.79 2.54,36.38l-46.27,12.77a52.74,52.74 0 0 0 1.09,-13.54a127.14,127.14 0 0 0 -3.47,-23.11l18,-4.89l-8,10.44l9.46,6.7l22.22,-21.13l-1.54,-2l5.97,-1.62z"></path>
   <path id="svg_26" fill="#092565" d="m204.24,84.70554l58.93,-16a127.14,127.14 0 0 1 3.47,23.11a52.74,52.74 0 0 1 -1.06,13.58l-55.19,15.22l-49.57,13.67c-1.76,-14.21 -2.74,-26.6 -3.24,-36.93l26.7,-7.24l20.78,10.43l8.28,-9l-9.1,-6.84z" class="cls-9"></path>
   <path id="svg_27" fill="#919195" d="m317.17,162.15554c-7,1.87 -24.59,6.7 -36.64,11.56c5.64,23.75 0,36.67 0,36.67l0.12,0.52l37,-7.9l-0.48,-40.85zm-32.37,-21.68c-6.29,-7.8 -14.7,-15.91 -24.32,-19.33a113,113 0 0 1 -5.58,11.23l0.34,0.19s14.69,12.77 22.32,31.83c6.62,-2.92 12.8,-5.5 18.22,-7.69a120,120 0 0 0 -10.98,-16.23z" class="cls-12"></path>
   <path id="svg_28" fill="#a1a1a4" d="m280.58,173.71554l-1.78,0.72l-8.72,3.64c-20.57,8.52 -52.15,21.27 -52.15,21.27s27.48,-18.88 49.3,-30.05c2.62,-1.34 5.15,-2.58 7.56,-3.64l2.82,-1.26c-7.68,-19.06 -22.37,-31.85 -22.37,-31.85l-0.34,-0.19a128.66,128.66 0 0 1 -11.87,17.42l-24.4,-20.34c-55,28.3 -20.52,89.86 -15.63,98l77.65,-16.56l-0.12,-0.52s5.64,-12.89 0.05,-36.64z" class="cls-13"></path>
   <polygon id="svg_29" fill="#183c47" points="304.8899842071533,59.875542640686035 282.6699829864502,80.98554706573486 273.20999153137205,74.29554462432861 282.83999641418455,78.01554584503174 304.8899842071533,59.875542640686035 " class="cls-11"></polygon>
   <polygon id="svg_30" points="303.34997566223143,57.8555383682251 294.58999641418455,46.365540504455566 281.19998176574705,63.8555383682251 273.20999153137205,74.29554462432861 282.83999641418455,78.01554584503174 304.8899842071533,59.875542640686035 303.34997566223143,57.8555383682251 "></polygon>
   <polygon id="svg_31" points="204.240005569458,84.70554828643799 183.41999824523924,69.15553760528564 172.86999519348143,84.42554950714111 184.240005569458,90.11555194854736 205.05000312805174,100.54554462432861 213.33999641418455,91.5055513381958 204.240005569458,84.70554828643799 "></polygon>
   <path id="svg_32" fill="#dea076" d="m281.2,63.85554l13.38,-17.49l8.76,11.49l6,-1.61q-1,-2.34 -2.27,-4.68c-18.18,-33.46 -44.49,-39.84 -70.27,-35.6a133,133 0 0 1 26.37,52.78l18.03,-4.89zm3.6,76.62c8.65,-9.7 22.18,-27.44 27,-47.85l-46.22,12.77a80.25,80.25 0 0 1 -5.07,15.75c9.59,3.4 18,11.53 24.29,19.33zm32.21,8.07s-8.49,3 -21.23,8.15c-5.42,2.19 -11.6,4.77 -18.22,7.69a64,64 0 0 1 2.9,9c0,0.11 0.05,0.21 0.07,0.32c12.05,-4.86 29.6,-9.69 36.64,-11.56l-0.16,-13.6z" class="cls-4"></path>
   <path id="svg_33" fill="#efbf97" d="m172.87,84.41554l10.55,-15.26l20.82,15.55l58.93,-16a133,133 0 0 0 -26.37,-52.78a130.33,130.33 0 0 0 -27.26,8c-36.84,14.81 -51.85,37.47 -51.85,37.47s-1.28,12.82 -0.14,36l26.7,-7.24l-11.38,-5.74zm107.59,89a64,64 0 0 0 -2.9,-9l-2.82,1.26c-2.41,1.06 -4.94,2.3 -7.56,3.64c-21.82,11.17 -49.3,30.05 -49.3,30.05s31.58,-12.75 52.15,-21.27l8.72,-3.64l1.78,-0.72c-0.02,-0.13 -0.06,-0.19 -0.07,-0.34l0,0.02zm-61.83,-43.94l24.4,20.34a128.66,128.66 0 0 0 11.87,-17.42a113,113 0 0 0 5.58,-11.23a80.25,80.25 0 0 0 5.1,-15.77l-55.19,15.22l-49.57,13.67c0.19,1.48 0.39,3 0.59,4.52c0.24,1.82 0.5,3.67 0.79,5.6c1.3,8.61 3,18.26 4.91,27.95c5,25.7 11.06,51.77 13,60l22.92,-4.9c-4.92,-8.14 -39.4,-69.7 15.6,-98l0,0.02z" class="cls-3"></path>
   <path id="svg_34" fill="#dea076" d="m162.17,144.40554c1.3,8.61 3,18.26 4.91,27.95c-4.24,3.05 -11,6.47 -18.06,4.39c-11,-3.2 -13.34,-15.12 -7.81,-24.24c4.31,-7.12 14.76,-8.15 20.96,-8.1z" class="cls-4"></path>
   <path id="svg_35" fill="#bfd5e8" d="m301.45,72.54554l-13.37,10.9a9.1,9.1 0 0 0 0.33,1.32c1.68,4.9 7.29,7.41 12.54,5.61s8.14,-7.23 6.46,-12.13a9.15,9.15 0 0 0 -5.96,-5.7z" class="cls-8"></path>
   <path id="svg_36" d="m296.29,80.98554a3.6,3.6 0 1 1 -4.51,-2.06a3.52,3.52 0 0 1 4.51,2.06z"></path>
   <path id="svg_37" fill="#fff" d="m178.46,96.48554a13.47,13.47 0 0 0 -1.73,12.28c2.38,6.95 9.72,10.74 16.37,8.46a12.72,12.72 0 0 0 8.48,-11.19l-23.12,-9.55z" class="cls-7"></path>
   <path id="svg_38" d="m183.58,101.19554a3.59,3.59 0 1 1 -4.5,-2.06a3.49,3.49 0 0 1 4.5,2.06z"></path>
   <path id="svg_39" d="m324.36,277.89554l29.54,-8.06a49.88,49.88 0 0 1 -0.91,10.34c-10.06,52.84 -157.18,52.1 -157.18,52.1l-1.45,-8.34c115.22,-12.69 130.35,-29.12 130,-46.04z"></path>
   <path id="svg_40" fill="#183c47" d="m192.58,313.83554l131.74,-35.94c0.35,16.92 -14.76,33.35 -130,46l-1.74,-10.06z" class="cls-11"></path>
   <path id="svg_41" d="m324.58,198.05554l-6.09,1.36l-0.4,18.34l-3,0.79l0.33,-18.44l-5.56,1.25l1,17.47l-2.27,0.78l-0.88,-17.77l-5.13,1.17l1.57,17.68l-2.28,0.78l-1.49,-18l-5,1.12l0.7,16.75l-2.28,0.78l-1.09,-16.92l-2.68,0.6l0.74,18.68l-4.35,0.79l-0.15,-18.62l-1.9,0.43l-3.87,25.63l38.89,-7.8l5.19,-26.85zm10.36,36l-39.76,12.19c9.59,2.85 20.79,7.8 25.65,15.95l29.21,-9.53a51.07,51.07 0 0 0 -15.14,-18.58l0.04,-0.03z"></path>
   <path id="svg_42" fill="#092565" d="m280.46,232.74554l3.87,-25.63l-6.19,1.4l-0.54,18.1l-2.88,0.53l0.33,-17.94l-6.47,1.45l-0.85,0.19l0,0.33l1.97,16.37l-2.91,1l-0.81,-16.22l0,-1l-9.72,2.19l1.18,4.28l3.32,11.94l-4.18,1.35l-1.81,-11.66l-0.86,-5.46l-7.67,1.73l2.08,7.89l2,7.69l-2.07,0.71l-1.87,-7.14l-2.28,-8.67l-7.06,1.58l3.12,11.17l1.6,5.74l-2.28,0.78l-1.53,-5l-3.66,-12l-6.28,1.41l2.4,15.69l0.1,0.72l-2.38,0.81l-0.11,0l-3.44,-16.53l-6.89,1.55l3.24,15.77l-2.28,0.78l-3.88,-15.88l-6.27,1.41l4.83,16.52l-2.89,1l-4.92,-16.85l-6.94,1.58l4.63,15.92l-1.86,0.64l-5.47,-15.94l-6.65,1.5l5.95,16.1l-4.36,0.11l-4.87,-15.46l-8.9,2l8.25,15.59l-1.86,0.64l-9.47,-15.54l-6.76,1.56l14.82,19l33.55,-6.79l64.88,-13.01zm14.72,13.5l-108.5,33.24l4.33,25.06l129.82,-42.35c-4.86,-8.15 -16.06,-13.1 -25.65,-15.95z" class="cls-9"></path>
   <path id="svg_43" fill="#bfd5e8" d="m350.04,252.66554l-29.21,9.53a17,17 0 0 1 2.18,5.71a62.71,62.71 0 0 1 1.35,10l29.54,-8.06a42.27,42.27 0 0 0 -3.86,-17.18zm-30.69,-27.72l-38.89,7.8l-1.5,10a106.15,106.15 0 0 1 16.22,3.48l39.72,-12.16a64.22,64.22 0 0 0 -15.55,-9.12z" class="cls-8"></path>
   <path id="svg_44" fill="#fff" d="m323.01,267.90554a17,17 0 0 0 -2.18,-5.71l-129.82,42.35l1.61,9.29l131.74,-35.94a62.71,62.71 0 0 0 -1.35,-9.99zm-44.05,-25.14l1.5,-10l-64.88,13l-33.55,6.73l2.81,16.32l1.84,10.68l108.5,-33.25a106.15,106.15 0 0 0 -16.22,-3.48z" class="cls-7"></path>
   <path id="svg_45" fill="#092565" d="m286.23,206.68554l0.15,18.62l4.35,-0.79l-0.74,-18.68l-3.76,0.85zm29.18,-6.58l-0.33,18.44l3,-0.79l0.4,-18.34l-3.07,0.69zm-7.67,1.73l0.88,17.77l2.27,-0.78l-1,-17.47l-2.15,0.48zm-7.39,1.71l1.49,18l2.28,-0.78l-1.54,-17.76l-2.23,0.54zm-7.68,1.73l1.09,16.92l2.28,-0.78l-0.7,-16.75l-2.67,0.61z" class="cls-9"></path>
   <path id="svg_46" fill="#0a3881" d="m228.03,219.79554l-3.45,0.75l3.48,16.5l0.11,0l2.38,-0.81l-0.1,-0.72l-2.42,-15.72zm-22.55,5.08l4.92,16.85l2.89,-1l-4.83,-16.52l-2.98,0.67zm9.25,-2.08l3.85,15.88l2.28,-0.78l-3.24,-15.77l-2.89,0.67zm-28.78,6.48l4.87,15.46l4.36,-0.11l-5.95,-16.08l-3.28,0.73zm9.91,-2.23l5.47,15.94l1.86,-0.64l-4.61,-15.92l-2.72,0.62zm-21.89,4.92l9.47,15.58l1.86,-0.64l-8.25,-15.59l-3.08,0.65zm93.75,-21.12l-1.79,0.41l0,1l0.81,16.22l2.91,-1l-1.95,-16.34l0.02,-0.29zm7.33,-1.64l-0.33,17.94l2.88,-0.53l0.54,-18.1l-3.09,0.69zm-18.84,4.24l-2.32,0.52l0.86,5.46l1.83,11.66l4.15,-1.42l-3.32,-11.94l-1.2,-4.28zm-10,2.25l-2.1,0.48l2.28,8.67l1.87,7.14l2.07,-0.71l-2,-7.69l-2.12,-7.89zm-9.16,2.06l-2.75,0.63l3.66,12l1.53,5l2.28,-0.78l-1.6,-5.74l-3.12,-11.11z" class="cls-10"></path>
   <path id="svg_47" d="m154.96,72.86554l137.77,-43.32l-4.7,-16.17l-12.85,2s-23.71,-24.12 -66.24,-11.94c-42.09,12.05 -49.52,47.32 -49.52,47.32l-10.75,3.34l6.29,18.77z"></path>
   <path id="svg_48" fill="url(#New_Gradient_Swatch_1)" d="m155.14,55.65554l4.12,10.54l2.56,-0.88l-3.81,-10.65l-2.87,0.99zm8.78,-2.84l3.2,11.72l2.53,-0.59l-2.89,-12.4l-2.84,1.27zm7.06,-3.07l3.71,12.2l2.44,-0.84l-3.86,-12l-2.29,0.64zm8.81,-2.38l3.13,12.3l2.44,-0.84l-2.78,-12.14l-2.79,0.68zm8.23,-2.28l3.6,11.32l2.29,-0.51l-3.61,-11.35l-2.28,0.54zm7.89,-2.43l2.67,11.65l2.2,-0.75l-2.64,-11.66l-2.23,0.76zm7,-1l3.6,10.5l2.28,-0.51l-3.77,-11l-2.11,1.01zm7.57,-2.6l3.77,11l1.95,-0.67l-4.24,-10.84l-1.48,0.51zm8.38,-2.61l2.63,10.84l3.17,-1.09l-3.52,-10.26l-2.28,0.51zm9,-2.52l2.8,11.32l2.92,-1l-3.53,-10.3l-2.19,-0.02zm6.93,-1.29l3.66,9.91l1.71,-0.59l-3.11,-9.85l-2.26,0.53zm7,-3.49l3.91,11.4l2.2,-0.75l-3.86,-11.24l-2.25,0.59zm7.59,-1l3.2,10.34l2.44,-0.84l-3.44,-10.26l-2.2,0.76zm8.14,-2.52l2.87,10.75l2.93,-1l-3.86,-11.23l-1.94,1.48zm8.95,-2.68l2.29,9.86l2.44,-0.84l-2.46,-10.35l-2.27,1.33zm7.53,-2.59l2.22,11.25l2.2,-0.76l-2.38,-10.92l-2.04,0.43zm9.16,-2.32l-2,0.43l1.71,9.78l2.85,-1.25l-2.56,-8.96z" class="cls-14"></path>
   <path id="svg_49" fill="url(#New_Gradient_Swatch_1-2)" d="m166.74,44.86554s7.91,-21.28 28.73,-31a104.3,104.3 0 0 1 32,-9.28l14.7,18.57l-75.43,21.71z" class="cls-15"></path>
  </g>
 </g>
</svg></svg></g></svg>